{"title":"The Vampire Diaries S03E09 HDTV XviD-2HD-Sebastian[Ub3r]","uid":6810824,"size":367706432,"categoryP":"video","categoryS":"tv_shows","magnet":"?xt=urn:btih:abccfbd12926e96a7eef4a8e6a33af73e4d152f0&amp;dn=The+Vampire+Diaries+S03E09+HDTV+XviD-2HD-Sebastian%5BUb3r%5D&amp;tr=udp%3A%2F%2Ftracker.openbittorrent.com%3A80&amp;tr=udp%3A%2F%2Fopen.demonii.com%3A1337&amp;tr=udp%3A%2F%2Ftracker.coppersurfer.tk%3A6969&amp;tr=udp%3A%2F%2Fexodus.desync.com%3A6969","seeders":1,"leechers":0,"uploader":"V3nom","files":5,"time":1321030581,"description":"[i]the.vampire.diaries.s03e09.hdtv.xvid-2hd.avi[/i]\n[i]Format : AVI[/i]\n[i]Format/Info : Audio Video Interleave[/i]\n[i]File size : 351 MiB[/i]\n[i]Duration : 41mn 5s[/i]\n[i]Overall bit rate : 1 193 Kbps[/i]\n[i]Writing application : MEncoder SVN-r32669-4.3.2[/i]\n[i]Writing library : MPlayer[/i]\n[i]Video[/i]\n[i]ID : 0[/i]\n[i]Format : MPEG-4 Visual[/i]\n[i]Format profile : Advanced Simple@L5[/i]\n[i]Format settings, BVOP : 2[/i]\n[i]Format settings, QPel : No[/i]\n[i]Format settings, GMC : No warppoints[/i]\n[i]Format settings, Matrix : Default (H.263)[/i]\n[i]Muxing mode : Packed bitstream[/i]\n[i]Codec ID : XVID[/i]\n[i]Codec ID/Hint : XviD[/i]\n[i]Duration : 41mn 5s[/i]\n[i]Bit rate : 1 052 Kbps[/i]\n[i]Width : 624 pixels[/i]\n[i]Height : 352 pixels[/i]\n[i]Display aspect ratio : 16:9[/i]\n[i]Frame rate : 23.976 fps[/i]\n[i]Color space : YUV[/i]\n[i]Chroma subsampling : 4:2:0[/i]\n[i]Bit depth : 8 bits[/i]\n[i]Scan type : Progressive[/i]\n[i]Compression mode : Lossy[/i]\n[i]Bits/(Pixel*Frame) : 0.200[/i]\n[i]Stream size : 309 MiB (88%)[/i]\n[i]Writing library : XviD 64[/i]\n[i]Audio[/i]\n[i]ID : 1[/i]\n[i]Format : MPEG Audio[/i]\n[i]Format version : Version 1[/i]\n[i]Format profile : Layer 3[/i]\n[i]Mode : Joint stereo[/i]\n[i]Mode extension : MS Stereo[/i]\n[i]Codec ID : 55[/i]\n[i]Codec ID/Hint : MP3[/i]\n[i]Duration : 41mn 5s[/i]\n[i]Bit rate mode : Variable[/i]\n[i]Bit rate : 128 Kbps[/i]\n[i]Channel(s) : 2 channels[/i]\n[i]Sampling rate : 48.0 KHz[/i]\n[i]Compression mode : Lossy[/i]\n[i]Stream size : 37.7 MiB (11%)[/i]\n[i]Alignment : Aligned on interleaves[/i]\n[i]Interleave, duration : 24 ms (0.58 video frame)[/i]\n[i]Interleave, preload duration : 487 ms[/i]\nScreens:\n[img]http://i2.kastatic.com/users/c57f96c26f7ed6030246c851aad5b469.jpg[/img]\n[img]http://i2.kastatic.com/users/133df62bbf28e62494bb17fe11078f1a.gif[/img][img]http://i2.kastatic.com/users/133df62bbf28e62494bb17fe11078f1a.gif[/img]\n","torrent":{"xt":"urn:btih:abccfbd12926e96a7eef4a8e6a33af73e4d152f0","amp;dn":"The+Vampire+Diaries+S03E09+HDTV+XviD-2HD-Sebastian%5BUb3r%5D","amp;tr":["udp%3A%2F%2Ftracker.openbittorrent.com%3A80","udp%3A%2F%2Fopen.demonii.com%3A1337","udp%3A%2F%2Ftracker.coppersurfer.tk%3A6969","udp%3A%2F%2Fexodus.desync.com%3A6969"],"infoHash":"abccfbd12926e96a7eef4a8e6a33af73e4d152f0","infoHashBuffer":{"type":"Buffer","data":[171,204,251,209,41,38,233,106,126,239,74,142,106,51,175,115,228,209,82,240]},"announce":[],"urlList":[]}}